<svg preserveAspectRatio="none" overflow="visible" style="display: block;" width="154.682" height="228.297" viewBox="0 0 154.682 228.297" fill="none" xmlns="http://www.w3.org/2000/svg">
<path id="Vector" d="M138.164 113.126C138.702 113.186 139.268 113.213 139.856 113.202C146.358 113.126 153.235 112.424 154.574 102.543C155.912 92.6625 144.345 87.9179 144.345 87.9179C144.345 87.9179 152.762 86.1441 153.622 79.4571C154.481 72.7646 150.178 68.8579 146.064 68.6239C141.951 68.3899 139.187 70.2562 138.512 72.9822C137.663 76.4264 141.668 77.5745 141.668 77.5745C134.975 78.9728 130.008 77.4167 129.24 68.4716C128.473 59.5265 138.8 59.5265 138.8 59.5265C138.8 59.5265 136.608 60.8269 137.173 63.259C137.631 65.2287 139.181 66.7576 142.81 66.7576C146.44 66.7576 148.915 65.0763 149.117 61.3111C149.481 54.5479 140.514 52.6762 140.514 52.6762C140.514 52.6762 147.245 51.9634 148.926 43.1054C150.684 33.8229 144.633 26.4721 138.594 25.3458C132.053 24.127 128.283 27.9303 128.087 31.2003C127.891 34.4704 129.839 37.0168 133.756 37.2508C137.674 37.4847 138.985 33.5345 138.985 33.5345C138.985 33.5345 143.191 35.8688 141.662 42.4035C140.133 48.9382 128.234 51.9362 128.234 51.9362C128.234 51.9362 134.779 37.0386 121.111 28.322C106.938 19.2844 84.0252 22.7993 82.9261 38.1649C82.9261 38.1649 78.4862 26.804 87.5673 19.0994C87.5673 19.0994 90.3913 23.0007 95.3372 21.2976C99.3363 19.921 100.055 14.7901 97.6007 12.0587C95.1631 9.34904 90.8809 8.53289 88.5522 10.2686C88.5522 10.2686 89.167 7.99422 86.1309 5.60016C83.0948 3.20609 78.8725 -0.0748659 77.3436 0.00130894C75.8147 -0.0748659 71.6087 3.18977 68.5509 5.6056C65.5147 7.99966 66.1296 10.274 66.1296 10.274C63.8008 8.53833 59.5187 9.35448 57.0811 12.0641C54.6435 14.7738 55.3454 19.9265 59.3446 21.303C64.2905 23.0061 67.1144 19.1049 67.1144 19.1049C76.1955 26.8094 71.7556 38.1703 71.7556 38.1703C70.6565 22.8048 47.7443 19.2899 33.5703 28.3275C19.9024 37.044 26.448 51.9416 26.448 51.9416C26.448 51.9416 14.5484 48.9436 13.0194 42.4089C11.4905 35.8742 15.6964 33.54 15.6964 33.54C15.6964 33.54 17.0077 37.4902 20.9253 37.2562C24.8428 37.0223 26.7853 34.4704 26.5949 31.2058C26.4044 27.9357 22.6338 24.1324 16.0882 25.3512C10.0486 26.4775 3.99272 33.8229 5.75562 43.1108C7.51852 52.3987 14.1675 52.6816 14.1675 52.6816C14.1675 52.6816 5.20063 54.5588 5.56518 61.3166C5.7665 65.0818 8.24218 66.7631 11.8714 66.7631C15.5006 66.7631 17.0513 65.2341 17.5083 63.2645C18.0742 60.8269 15.8814 59.5319 15.8814 59.5319C15.8814 59.5319 26.2031 59.5319 25.4414 68.477C24.6742 77.4221 19.7065 78.9782 13.014 77.5799C13.014 77.5799 17.0186 76.4318 16.1698 72.9876C15.5006 70.2671 12.7311 68.3954 8.61762 68.6294C4.50962 68.8633 0.200302 72.77 1.05999 79.4625C1.91968 86.155 10.337 87.9233 10.337 87.9233C10.337 87.9233 -1.2307 92.6679 0.107804 102.549C1.4463 112.43 8.32924 113.132 14.8259 113.208C15.4135 113.213 15.9794 113.186 16.518 113.132L16.5071 113.023C16.5071 113.023 16.1317 113.839 16.5071 114.383C16.5071 114.383 14.7334 115.357 15.1142 116.951C15.1142 116.951 20.2288 116.565 20.5172 120.608C20.8056 124.656 19.9894 128.193 14.445 127.806C14.445 127.806 18.4115 126.56 17.9327 122.322C17.4539 118.083 13.199 117.653 10.1901 117.811C7.18118 117.969 1.63674 121.119 2.39849 127.578C3.16568 134.036 7.56205 136.838 12.9106 137.067C12.9106 137.067 8.57953 139.249 9.89627 142.432C11.2783 145.762 15.1088 143.836 15.1088 143.836C15.1088 143.836 9.66774 149.843 10.522 159.005C11.2892 167.281 15.778 170.285 15.778 170.285C15.778 170.285 5.54886 173.941 6.69692 184.6C7.84499 195.259 19.9622 202.387 34.1797 202.496C50.4539 202.615 61.2762 195.841 65.2917 188.61C65.2917 188.61 65.2917 198.415 57.1192 203.491C57.1192 203.491 56.6186 201.391 53.4628 202.093C50.307 202.795 48.8923 205.646 50.2363 208.394C52.2549 212.524 57.3314 210.38 57.3314 210.38C57.3314 210.38 55.3454 214.395 58.8658 216.512C62.0053 218.4 66.0099 213.993 66.0099 213.993C66.0099 213.993 63.7083 219.358 68.2842 223.014C71.1462 225.305 75.6841 228.297 77.3327 228.297C78.9814 228.297 85.1624 224.401 88.1985 222.35C92.8778 219.194 90.277 213.993 90.277 213.993C90.277 213.993 92.6819 217.518 95.8867 215.859C99.4887 213.993 97.3286 210.385 97.3286 210.385C97.3286 210.385 102.563 211.261 104.424 208.399C106.29 205.543 104.913 202.664 101.758 201.968C98.6018 201.271 97.5408 203.497 97.5408 203.497C89.3683 198.42 89.3683 188.616 89.3683 188.616C93.3838 195.852 104.282 204.019 120.48 202.501C136.684 200.983 146.815 195.265 147.963 184.605C149.111 173.946 138.882 170.29 138.882 170.29C138.882 170.29 142.228 167.102 144.138 159.011C146.048 150.92 139.551 143.841 139.551 143.841C139.551 143.841 143.567 146.643 145.384 142.753C147.201 138.863 141.749 137.072 141.749 137.072C147.103 136.838 151.5 134.036 152.262 127.583C153.029 121.125 147.484 117.974 144.47 117.817C141.456 117.659 137.206 118.089 136.727 122.327C136.248 126.566 140.215 127.812 140.215 127.812C134.671 128.198 133.86 124.661 134.143 120.613C134.431 116.565 139.546 116.957 139.546 116.957C139.927 115.363 138.153 114.389 138.153 114.389C138.528 113.845 138.153 113.028 138.153 113.028" fill="#AFACAA"/>
</svg>
