<svg preserveAspectRatio="none" overflow="visible" style="display: block;" width="82.8466" height="39.858" viewBox="0 0 82.8466 39.858" fill="none" xmlns="http://www.w3.org/2000/svg">
<g id="Group 2147264260">
<path id="Vector 6816" d="M15.0423 9.43915C11.0568 11.3496 4.05927 18.273 5.8765e-06 21.1387C9.35966 31.1669 26.1809 39.858 42.787 39.858C56.0719 39.858 72.5373 33.1726 72.5373 33.1726C72.5373 33.1726 79.3541 32.3615 81.5682 28.1585C83.7824 23.9555 82.6753 19.7659 81.5682 18.6514C76.2174 13.8745 61.1945 0.843648 47.4668 0.079466C30.3072 -0.875761 20.0241 7.05109 15.0423 9.43915Z" fill="white"/>
<path id="Ellipse 309" d="M62.8433 14.1984C62.8433 25.7864 53.8637 35.1804 42.7869 35.1804C31.7101 35.1804 22.7305 25.7864 22.7305 14.1984C22.7305 11.6148 23.5855 6.37863 24.4019 4.09298C29.156 0.421072 34.1796 0.0817017 42.7869 0.0817017C50.8158 0.0817017 54.3771 0.422357 60.5034 4.09298C61.7197 6.79932 62.8433 11.0098 62.8433 14.1984Z" fill="#A0B4FF"/>
</g>
</svg>
