<svg preserveAspectRatio="none" overflow="visible" style="display: block;" width="261.236" height="253.449" viewBox="0 0 261.236 253.449" fill="none" xmlns="http://www.w3.org/2000/svg">
<g id="Vector 572" filter="url(#filter0_dddd_0_753)">
<path d="M237.175 167.558C237.364 168.927 237.538 170.611 237.673 171.035H241.118C239.812 172.243 236.124 177.108 235.21 181.024H126.211H106.894H86.8753H44.2127C43.7774 180.752 30.6102 181.024 30.6102 181.024H20.1182V4.1485C21.424 5.12753 22.88 2.55374 24.6505 5.45671C25.6287 7.0606 27.5763 7.97418 29.1985 9.16706C31.2131 10.6486 35.6327 10.5033 38.0696 12.1106C38.8886 12.6508 39.6412 14.2374 41.2472 15.3761C43.4739 16.9547 47.1918 18.6384 51.1553 21.305C60.1781 27.3755 62.4262 27.0811 64.8044 28.7866C66.5532 30.0407 67.4827 31.8104 69.387 33.0642C71.5865 34.5123 75.0174 35.8482 77.269 36.3505C80.2024 37.0049 85.579 36.5017 87.56 38.2778C89.5292 40.0435 91.0395 42.7283 92.9375 43.4689C95.4496 44.4492 98.0631 46.4104 100.717 47.3757C103.036 48.2192 104.58 49.7836 106.894 52.7997C108.317 54.655 108.857 58.2159 110.734 60.2354C112.256 61.8723 112.935 64.1265 114.511 64.9524C116.171 65.8221 120.21 67.5993 121.849 65.5965C122.395 64.9296 122.287 63.646 122.949 62.8542C123.201 62.5522 123.65 62.5942 124.06 62.7799C124.886 63.1536 125.955 63.8467 127.613 64.5688L127.759 64.6324C129.38 65.338 131.176 66.12 133.941 67.4487C139.838 70.2823 142.802 70.501 145.373 71.0605C149.065 71.8634 152.914 72.9111 154.286 74.6815C155.661 76.455 159.308 78.2202 158.687 80.059C158.394 80.9249 157.668 81.9123 157.827 82.9536C157.974 83.9229 159.527 85.231 160.93 87.0901C162.601 89.3027 164.874 93.4213 167.553 94.5429C169.424 95.3264 171.176 96.1589 172.29 97.787C172.564 98.1886 172.67 98.4556 171.899 98.8411C164.692 102.447 166.821 104.028 168.521 107.727C169.299 109.419 171.766 111.08 171.018 112.669C170.667 113.416 169.358 113.981 169.256 115.109C169.079 117.058 168.166 118.802 168.53 120.611C168.73 121.608 169.14 122.545 169.726 123.437C170.976 125.341 172.078 128.423 174.721 129.149C177.103 129.804 180.305 129.582 182.119 130.475C182.975 130.896 183.723 131.736 184.48 132.641C185.682 134.075 187.334 135.094 188.428 136.606C188.699 136.98 188.897 137.393 188.598 137.827C188.299 138.262 187.427 138.621 187.07 139.141C186.483 139.997 186.107 141.216 186.603 142.275C186.815 142.729 187.206 143.054 187.637 143.007C189.425 142.812 191.453 141.336 195.114 142.284C197.234 142.833 198.755 144.197 200.927 144.823C202.838 145.373 205.63 144.827 206.333 146.601C207.168 148.71 206.752 152.413 208.606 153.446C209.382 153.879 210.515 153.846 211.711 154.114C213.581 154.534 216.386 153.891 217.31 155.507C217.82 156.397 218.128 157.665 219.064 158.006C221.276 158.814 223.917 158.922 226.022 159.616C227.818 160.208 230.782 159.7 231.503 161.367C231.813 162.081 232.2 162.951 232.895 163.688C234.179 165.05 236.917 165.688 237.175 167.558Z" fill="#D9D9D9"/>
</g>
<defs>
<filter id="filter0_dddd_0_753" x="0" y="-2.39547e-07" width="261.236" height="253.449" filterUnits="userSpaceOnUse" color-interpolation-filters="sRGB">
<feFlood flood-opacity="0" result="BackgroundImageFix"/>
<feColorMatrix in="SourceAlpha" type="matrix" values="0 0 0 0 0 0 0 0 0 0 0 0 0 0 0 0 0 0 127 0" result="hardAlpha"/>
<feOffset dy="2.68243"/>
<feGaussianBlur stdDeviation="3.35304"/>
<feColorMatrix type="matrix" values="0 0 0 0 0 0 0 0 0 0 0 0 0 0 0 0 0 0 0.1 0"/>
<feBlend mode="normal" in2="BackgroundImageFix" result="effect1_dropShadow_0_753"/>
<feColorMatrix in="SourceAlpha" type="matrix" values="0 0 0 0 0 0 0 0 0 0 0 0 0 0 0 0 0 0 127 0" result="hardAlpha"/>
<feOffset dy="13.4122"/>
<feGaussianBlur stdDeviation="6.70608"/>
<feColorMatrix type="matrix" values="0 0 0 0 0 0 0 0 0 0 0 0 0 0 0 0 0 0 0.09 0"/>
<feBlend mode="normal" in2="effect1_dropShadow_0_753" result="effect2_dropShadow_0_753"/>
<feColorMatrix in="SourceAlpha" type="matrix" values="0 0 0 0 0 0 0 0 0 0 0 0 0 0 0 0 0 0 127 0" result="hardAlpha"/>
<feOffset dy="29.5068"/>
<feGaussianBlur stdDeviation="8.71791"/>
<feColorMatrix type="matrix" values="0 0 0 0 0 0 0 0 0 0 0 0 0 0 0 0 0 0 0.05 0"/>
<feBlend mode="normal" in2="effect2_dropShadow_0_753" result="effect3_dropShadow_0_753"/>
<feColorMatrix in="SourceAlpha" type="matrix" values="0 0 0 0 0 0 0 0 0 0 0 0 0 0 0 0 0 0 127 0" result="hardAlpha"/>
<feOffset dy="52.3074"/>
<feGaussianBlur stdDeviation="10.0591"/>
<feColorMatrix type="matrix" values="0 0 0 0 0 0 0 0 0 0 0 0 0 0 0 0 0 0 0.01 0"/>
<feBlend mode="normal" in2="effect3_dropShadow_0_753" result="effect4_dropShadow_0_753"/>
<feBlend mode="normal" in="SourceGraphic" in2="effect4_dropShadow_0_753" result="shape"/>
</filter>
</defs>
</svg>
