<svg preserveAspectRatio="none" overflow="visible" style="display: block;" width="1352" height="102.153" viewBox="0 0 1352 102.153" fill="none" xmlns="http://www.w3.org/2000/svg">
<g id="UBC Wordmark Single-Line">
<path id="Vector" d="M1227.26 40.4926C1227.26 17.0216 1242.59 0.212799 1263.73 0.212799C1269.44 0.212799 1273.77 1.37631 1286.46 1.37631C1285.61 5.28617 1285.3 6.34336 1286.03 8.98931L1289.63 23.6838L1285.93 24.6347C1280.02 11.3163 1273.88 4.86684 1262.89 4.86684C1247.87 4.86684 1237.83 17.3406 1237.83 37.5337C1237.83 57.7267 1247.35 68.2987 1263.73 68.2987C1273.88 68.2987 1281.6 64.0699 1288.79 53.179L1291.85 54.6615C1283.82 70.8384 1273.25 76.65 1260.24 76.65C1240.26 76.65 1227.26 62.2745 1227.26 40.4926Z" fill="#F0EBE6"/>
<path id="Vector_2" d="M1297.03 49.5333C1297.03 33.0433 1308.97 21.0952 1325.25 21.0952C1341.53 21.0952 1352 32.4055 1352 48.2635C1352 64.1214 1340.16 76.7015 1323.77 76.7015C1307.39 76.7015 1297.03 65.3912 1297.03 49.5333ZM1341.53 49.427C1341.53 33.569 1335.4 26.0623 1324.41 26.0623C1313.41 26.0623 1307.49 33.1438 1307.49 48.3698C1307.49 63.5958 1313.62 71.8408 1324.73 71.8408C1335.83 71.8408 1341.53 64.653 1341.53 49.427Z" fill="#F0EBE6"/>
<path id="Vector_3" d="M114.814 80.8519C114.814 69.5112 123.614 59.9708 135.274 59.9708C142.375 59.9708 148.315 63.5773 148.315 69.1914C148.315 73.9587 143.861 75.7649 139.514 74.0653C140.788 68.0248 138.774 64.0985 133.788 64.0985C127.534 64.0985 123.401 69.9317 123.401 78.6193C123.401 90.3864 131.348 96.9599 143.014 96.9599C160.822 96.9599 171.849 82.2258 171.849 66.7456C171.849 58.5851 168.669 52.7519 161.035 46.285L153.935 40.2445C146.301 33.6711 143.228 25.931 145.028 17.5572C147.468 6.21649 157.115 1.33674 167.395 1.33674C178.843 1.33674 184.143 6.85015 184.143 12.3636C184.143 16.7103 180.856 20.2103 174.496 18.937C175.876 11.3035 173.329 6.1099 166.016 6.1099C160.502 6.1099 155.095 8.76297 153.508 16.0767C151.921 23.0706 155.101 28.6906 161.775 34.0974L168.242 39.3977C177.356 46.818 182.023 54.2383 182.023 63.9919C182.023 82.8595 164.109 102.153 141.001 102.153C125.84 102.153 114.82 93.5665 114.82 80.846L114.814 80.8519Z" fill="#F0EBE6"/>
<path id="Vector_4" d="M401.611 76.7504V73.0255L408.421 71.9595C410.227 71.6397 410.654 71.1067 411.08 69.3005L418.637 33.863C421.615 20.0292 424.274 12.2595 428.959 5.6623C402.89 6.51508 396.08 17.0504 396.08 23.5409C396.08 28.3319 399.698 30.5645 406.508 29.2853C408.32 33.9696 405.975 37.7953 400.657 37.7953C395.02 37.7953 390.442 33.6439 390.442 26.3006C390.442 14.8059 400.764 0.764781 434.816 0.764781C458.652 0.764781 466.528 7.46853 466.528 18.0038C466.528 29.0721 457.805 35.989 445.99 38.1151C445.99 38.1151 450.456 47.1521 458.758 62.2C467.067 77.2419 477.052 94.2856 485.064 94.2856C488.588 94.2856 490.027 90.5191 488.83 84.5024C493.829 82.7968 497.956 84.757 497.956 89.9743C497.956 94.8245 492.295 98.3126 484.632 98.3126C473.99 98.3126 465.557 92.5445 448.946 61.744L438.754 43.439C437.688 40.8866 437.161 40.4602 435.242 40.4602H426.519L420.455 69.3005C420.028 71.2133 420.135 71.6397 422.054 71.9595L428.651 73.0255V76.7504H401.623H401.611ZM455.88 18.3295C455.88 10.6664 451.303 5.98802 433.85 5.66823L427.573 35.7818H436.936C449.704 35.7818 455.874 27.3725 455.874 18.3295H455.88Z" fill="#F0EBE6"/>
<path id="Vector_5" d="M8.16056 47.7705V9.28908C8.16056 7.27559 7.84077 7.0624 6.04048 6.74261L0 5.68256V1.86877H26.1813V5.68256L19.9276 6.74261C18.2339 7.0624 17.9142 7.37626 17.9142 9.28908V46.3906C17.9142 65.578 25.1213 72.1515 37.9484 72.1515C52.6824 72.1515 60.3159 62.9309 60.3159 47.5573V13.1029C60.3159 10.1359 59.6823 8.12244 56.1823 6.9558L52.1554 5.57597V1.86877H74.6295V5.57597L70.4959 6.9558C66.996 8.22904 66.3623 9.92274 66.3623 13.1029V46.8111C66.3623 66.4249 55.8685 77.3392 37.0009 77.3392C18.1333 77.3392 8.16649 68.9654 8.16649 47.7645L8.16056 47.7705Z" fill="#F0EBE6"/>
<path id="Vector_6" d="M196.369 47.7705V9.28908C196.369 7.27559 196.049 7.0624 194.248 6.74261L188.208 5.68256V1.86877H214.389V5.68256L208.136 6.74261C206.442 7.0624 206.122 7.37626 206.122 9.28908V46.3906C206.122 65.578 213.329 72.1515 226.156 72.1515C240.89 72.1515 248.524 62.9309 248.524 47.5573V13.1029C248.524 10.1359 247.89 8.12244 244.39 6.9558L240.363 5.57597V1.86877H262.837V5.57597L258.704 6.9558C255.204 8.22904 254.57 9.92274 254.57 13.1029V46.8111C254.57 66.4249 244.076 77.3392 225.209 77.3392C206.341 77.3392 196.374 68.9654 196.374 47.7645L196.369 47.7705Z" fill="#F0EBE6"/>
<path id="Vector_7" d="M267.874 72.2581L274.554 71.198C276.461 70.8783 276.674 70.5644 276.674 68.6516V9.28908C276.674 7.27559 276.354 7.0624 274.554 6.74261L267.874 5.68256V1.86877H298.509C315.043 1.86877 324.376 9.07589 324.376 22.1162C324.376 35.1565 313.989 44.2706 297.981 44.2706C295.121 44.2706 290.988 43.9508 286.321 43.2105V68.6516C286.321 70.4519 286.641 70.9848 288.441 71.198L296.288 72.2581V76.0719H267.88V72.2581H267.874ZM286.321 6.8492V38.2241C290.455 38.9644 293.954 39.1776 297.135 39.1776C307.735 39.1776 313.568 33.6642 313.568 23.0637C313.568 12.4633 308.268 6.84328 296.075 6.84328H286.321V6.8492Z" fill="#F0EBE6"/>
<path id="Vector_8" d="M325.68 72.2581L332.36 71.198C334.267 70.8783 334.48 70.5644 334.48 68.6516V9.28908C334.48 7.27559 334.16 6.9558 332.36 6.74261L325.68 5.68256V1.86877H378.261C377.835 6.42874 378.048 7.16899 379.002 9.82207L383.769 23.7092L380.482 25.1957L368.822 10.5682C366.382 7.38811 364.795 6.86105 360.768 6.86105H344.127V35.4822H355.894C360.134 35.4822 361.934 35.0559 363.101 31.4553L365.221 25.5214L368.828 25.8412C368.194 37.3951 368.194 38.5617 368.828 50.1156L365.221 50.4354L363.101 44.5015C361.934 40.895 360.134 40.4745 355.894 40.4745H344.127V71.1092H363.101C367.128 71.1092 368.614 70.5762 371.262 67.2954L382.816 52.8812L386.209 54.261L381.436 68.2548C380.695 70.5881 380.162 71.3283 380.695 76.1015H325.68V72.2877V72.2581Z" fill="#F0EBE6"/>
<path id="Vector_9" d="M94.6333 13.2764H94.207V46.3509C94.207 48.7908 95.0538 49.7443 97.4937 50.4845L101.201 51.438V55.1511H82.0135V51.438L85.4068 50.4845C87.9533 49.6377 88.8001 48.7908 88.8001 46.3509V9.66984C88.8001 7.76295 88.4803 7.22996 86.4668 6.7029L82.0135 5.42966V1.72247H97.0673L126.429 38.0838H126.855V10.5167C126.855 8.18341 126.008 7.12337 123.568 6.48971L119.861 5.42966V1.72247H138.942V5.42966L135.655 6.48971C133.109 7.22996 132.262 8.08274 132.262 10.5167V55.992H129.082L94.6274 13.2704L94.6333 13.2764Z" fill="#F0EBE6"/>
<path id="Vector_10" d="M558.647 6.74261L565.434 5.68256V1.86877H516.565V5.68256L522.392 7.58946C523.985 8.11652 524.406 8.54291 523.772 10.4498L505.645 60.6983H505.218L486.984 9.28316C486.351 7.58946 486.451 7.05648 488.471 6.73669L494.511 5.67664V1.86877H468.964V5.68256L473.838 6.63601C475.744 7.0624 476.171 7.80265 476.698 9.28908L501.079 77.3451H505.212L529.913 10.4557C531.098 7.48286 534.556 6.0675 538.678 6.0675C543.191 6.0675 546.874 7.6546 546.874 10.7163V68.6516C546.874 70.5585 546.661 70.8782 544.754 71.198L538.074 72.2581V76.0719H565.422V72.2581L558.635 71.198C556.835 70.9848 556.515 70.5644 556.515 68.6516V9.28908C556.515 7.38219 556.835 6.9558 558.635 6.74261H558.647Z" fill="#F0EBE6"/>
<path id="Vector_11" d="M574.893 76.068C575.846 71.1942 575.633 70.448 575.212 68.1147L572.245 52.5339L575.852 51.5804C583.906 69.388 589.313 71.9344 596.206 71.9344C603.946 71.9344 609.987 68.3279 609.987 59.9542C609.987 53.2741 606.38 49.6735 597.692 44.3733L587.092 38.013C577.765 32.393 574.899 26.5657 574.899 19.6725C574.899 8.22519 584.972 0.698287 597.266 0.698287C603.626 0.698287 604.793 1.86493 615.92 1.86493C614.967 6.53149 615.18 7.48494 615.494 9.71163L617.614 21.4787L614.008 22.219C607.861 8.22519 603.087 5.57804 595.987 5.57804C588.886 5.57804 583.266 9.39183 583.266 17.0253C583.266 22.0058 585.706 25.6123 594.394 30.6993L604.675 36.7398C615.062 42.7803 619.089 48.5069 619.089 56.774C619.089 69.0682 607.641 77.2347 594.708 77.2347C589.935 77.2347 587.501 76.068 574.887 76.068H574.893Z" fill="#F0EBE6"/>
<path id="Vector_12" d="M625.735 72.2581L632.415 71.198C634.322 70.8783 634.535 70.5644 634.535 68.6516V9.28908C634.535 7.27559 634.215 6.9558 632.415 6.74261L625.735 5.68256V1.86877H678.311C677.89 6.42874 678.098 7.16899 679.051 9.82207L683.818 23.7092L680.532 25.1957L668.871 10.5682C666.431 7.38811 664.844 6.86105 660.817 6.86105H644.176V35.4822H655.943C660.184 35.4822 661.984 35.0559 663.15 31.4553L665.271 25.5214L668.877 25.8412C668.243 37.3951 668.243 38.5617 668.877 50.1156L665.271 50.4354L663.15 44.5015C661.984 40.895 660.184 40.4745 655.943 40.4745H644.176V71.1092H663.15C667.177 71.1092 668.664 70.5762 671.311 67.2954L682.865 52.8812L686.258 54.261L681.491 68.2548C680.751 70.5881 680.218 71.3283 680.751 76.1015H625.735V72.2877V72.2581Z" fill="#F0EBE6"/>
<path id="Vector_13" d="M690.83 72.2581L697.51 71.198C699.417 70.8783 699.63 70.5644 699.63 68.6516V9.28908C699.63 7.27559 699.31 6.9558 697.51 6.74261L690.83 5.68256V1.86877H723.691C748.072 1.86877 762.173 15.9691 762.173 38.1235C762.173 60.2778 746.059 76.0719 722.631 76.0719H690.83V72.2581ZM709.271 6.8492V71.1921H721.358C741.392 71.1921 750.933 59.3184 750.933 39.2842C750.933 17.8701 740.012 6.8492 719.658 6.8492H709.271Z" fill="#F0EBE6"/>
<path id="Vector_14" d="M807.899 72.6282L814.686 71.5681C816.486 71.2483 816.913 70.7213 817.333 68.921L824.86 33.6197C827.827 19.8391 830.373 12.099 835.034 5.52557C809.06 6.37243 802.279 16.8663 802.279 23.3331C802.279 28.1063 805.886 30.3271 812.667 29.0597C814.467 33.7263 812.14 37.5401 806.839 37.5401C801.219 37.5401 796.665 33.4065 796.665 26.0928C796.665 14.6455 806.946 0.651738 840.867 0.651738C864.615 0.651738 872.882 7.3318 872.882 18.0388C872.882 27.366 866.628 34.0461 856.134 37.013V37.4394C864.295 39.5595 868.748 44.8597 868.748 53.2335C868.748 67.6477 855.394 76.3413 838.007 76.3413H807.899V72.6282ZM832.701 39.98L826.021 71.5681H838.108C851.462 71.5681 858.355 63.9346 858.355 53.2276C858.355 44.1136 853.268 39.9741 844.042 39.9741H832.701V39.98ZM839.914 5.52557L833.66 35.42H844.047C860.161 35.42 862.808 24.2925 862.808 18.6725C862.808 10.5119 857.402 5.84536 839.914 5.52557Z" fill="#F0EBE6"/>
<path id="Vector_15" d="M929.706 4.8432e-08C935.285 4.8432e-08 939.027 3.44663 939.027 6.68598C939.027 10.4346 937.801 12.5962 933.2 13.8516C933.129 10.0556 931.654 6.67413 927.497 6.67413C924.453 6.67413 922.576 9.06664 922.576 12.8094L922.422 68.0146C922.422 69.8919 923.275 70.4426 924.897 70.8453L930.861 72.0593V75.6955H905.728V72.0593L910.507 70.8453C912.739 70.3419 914.149 69.9689 914.149 68.0146V53.1562H890.23C890.23 53.1562 876.443 72.468 866.897 84.1462C860.092 92.4726 854.798 97.2221 846.395 97.2221C838.892 97.2221 832.804 94.2137 832.804 88.5404C832.804 84.0988 836.635 81.4517 841.93 83.3645C840.573 90.2874 842.717 93.1299 845.584 93.1299C850.25 93.1299 855.313 88.5463 863.48 77.4365C874.199 62.8624 899.439 27.9816 907.854 16.3626C916.399 4.55997 923.15 4.8432e-08 929.706 4.8432e-08ZM893.126 48.4008H914.155V20.3007H913.746L893.126 48.4008Z" fill="#F0EBE6"/>
<path id="Vector_16" d="M1120.49 39.607C1120.49 16.9197 1136.6 0.598531 1158.12 0.598531C1163.95 0.598531 1168.29 1.76517 1181.02 1.76517C1180.06 5.68556 1179.85 6.63901 1180.49 9.39868L1183.77 23.0727L1180.06 23.9195C1174.13 10.5653 1168.51 5.2651 1157.17 5.2651C1140.95 5.2651 1131.73 16.3985 1131.73 38.2331C1131.73 60.0676 1141.06 72.2611 1156.96 72.2611C1161.83 72.2611 1167.13 70.9878 1171.9 68.8678V48.5137C1171.9 46.82 1171.69 46.1804 1169.89 45.9672L1162.58 44.8006V41.0875H1188.65V44.8006L1183.67 45.9672C1181.66 46.3936 1181.66 46.8141 1181.66 48.5137V64.2012H1187.49V66.9549L1180.07 70.1351C1170.21 74.2687 1163.32 77.2356 1155.37 77.2356C1135.23 77.2356 1120.5 61.6547 1120.5 39.6011L1120.49 39.607Z" fill="#F0EBE6"/>
<path id="Vector_17" d="M1033.63 6.63546L1040.42 5.57542V1.7557H1013.07V5.56949L1019.75 6.62954C1021.55 6.84273 1021.87 7.16252 1021.87 9.17601V67.3541C1021.87 70.6586 1018.03 72.1036 1013.34 72.1036C1008.65 72.1036 1000.88 67.5436 996.681 63.031C991.488 57.411 986.614 50.5237 982.688 44.0568L976.541 33.7761L997.955 10.3486C999.228 8.96874 1000.29 8.12189 1002.83 7.27504L1008.13 5.58134V1.7557H984.067V5.56949L989.687 7.2632C991.488 7.79618 991.594 8.9569 990.114 10.5499L969.866 33.3438C968.913 34.5105 968.066 34.8303 966.793 34.8303H960.219V9.17601C960.219 7.26912 960.539 6.84273 962.339 6.62954L969.126 5.56949V1.7557H941.778V5.56949L948.458 6.62954C950.258 6.84273 950.578 7.16252 950.578 9.17601V68.5385C950.578 70.4454 950.365 70.7652 948.458 71.085L941.778 72.145V75.9588H969.126V72.145L962.339 71.085C960.539 70.8718 960.219 70.4513 960.219 68.5385V39.7041H966.899C969.126 39.7041 969.547 40.1305 970.506 41.8242C977.607 54.7579 984.5 65.0386 989.907 70.2322C994.994 75.2126 999.4 75.9588 1004.2 75.9588H1040.43V72.145L1033.65 71.085C1031.85 70.8718 1031.53 70.4513 1031.53 68.5385V9.17601C1031.53 7.26912 1031.85 6.84273 1033.65 6.62954L1033.63 6.63546Z" fill="#F0EBE6"/>
<path id="Vector_18" d="M1059.7 13.5893H1059.27V64.6846C1059.27 68.1846 1060.22 69.9849 1063.4 70.9383L1068.07 72.4247V76.0313H1044.43V72.4247L1049.09 70.9383C1052.7 69.7717 1053.23 68.078 1053.23 64.6846V10.5158C1053.23 8.71547 1053.23 8.18249 1051.11 7.54883L1044.43 5.64194V1.82222H1063.3L1105.38 57.0511H1105.8V13.0563C1105.8 10.0894 1105.27 7.9693 1101.67 6.90925L1097 5.52942V1.82222H1120.64V5.52942L1116.08 6.90925C1112.37 8.07589 1111.84 9.87619 1111.84 13.0563V77.2927H1107.92L1059.69 13.5834L1059.7 13.5893Z" fill="#F0EBE6"/>
</g>
</svg>
